<svg width="28" height="28" viewBox="0 0 28 28" fill="none" xmlns="http://www.w3.org/2000/svg">
<path d="M6.56247 13.1378L15.5376 4.16262C16.5222 3.17804 17.8576 2.62492 19.25 2.62492C20.6424 2.62492 21.9777 3.17804 22.9623 4.16262C23.9469 5.14719 24.5 6.48255 24.5 7.87495C24.5 9.26734 23.9469 10.6027 22.9623 11.5873L10.199 24.3506C9.87386 24.6756 9.48793 24.9333 9.06321 25.1091C8.63849 25.2849 8.18331 25.3754 7.72364 25.3752C7.26398 25.3751 6.80883 25.2845 6.3842 25.1085C5.95957 24.9325 5.57376 24.6746 5.2488 24.3494C4.92385 24.0243 4.66611 23.6384 4.4903 23.2137C4.31449 22.789 4.22407 22.3338 4.22417 21.8741C4.22428 21.4145 4.31492 20.9593 4.49093 20.5347C4.66694 20.11 4.92486 19.7242 5.24997 19.3993L18.0226 6.62662C18.354 6.30896 18.7969 6.13537 19.2559 6.14119C19.7148 6.147 20.1532 6.33292 20.4764 6.65887C20.7996 6.98482 20.9818 7.42471 20.9837 7.88373C20.9856 8.34274 20.8071 8.78414 20.4866 9.11278L11.375 18.2244M18.0121 6.63828L18.0238 6.62662" stroke="black" stroke-width="1.75" stroke-linecap="round" stroke-linejoin="round"/>
</svg>
