<svg width="38" height="26" viewBox="0 0 38 26" fill="none" xmlns="http://www.w3.org/2000/svg">
<path d="M19.0003 20.6665C21.0837 20.6665 22.8548 19.9376 24.3137 18.4798C25.7725 17.0221 26.5014 15.2509 26.5003 13.1665C26.4992 11.0821 25.7703 9.3115 24.3137 7.85484C22.857 6.39817 21.0859 5.66873 19.0003 5.6665C16.9148 5.66428 15.1442 6.39373 13.6887 7.85484C12.2331 9.31595 11.5037 11.0865 11.5003 13.1665C11.497 15.2465 12.2264 17.0176 13.6887 18.4798C15.1509 19.9421 16.9214 20.671 19.0003 20.6665ZM19.0003 17.6665C17.7503 17.6665 16.6881 17.2287 15.8137 16.3532C14.9392 15.4776 14.5014 14.4154 14.5003 13.1665C14.4992 11.9176 14.937 10.8554 15.8137 9.97984C16.6903 9.10428 17.7525 8.66651 19.0003 8.66651C20.2481 8.66651 21.3109 9.10428 22.1887 9.97984C23.0664 10.8554 23.5037 11.9176 23.5003 13.1665C23.497 14.4154 23.0598 15.4782 22.1887 16.3548C21.3175 17.2315 20.2548 17.6687 19.0003 17.6665ZM19.0003 25.6665C14.9448 25.6665 11.2503 24.5348 7.91699 22.2715C4.58366 20.0082 2.16699 16.9732 0.666992 13.1665C2.16699 9.36095 4.58366 6.32651 7.91699 4.06317C11.2503 1.79984 14.9448 0.667616 19.0003 0.666505C23.0559 0.665394 26.7503 1.79762 30.0837 4.06317C33.417 6.32873 35.8337 9.36317 37.3337 13.1665C35.8337 16.9721 33.417 20.0071 30.0837 22.2715C26.7503 24.5359 23.0559 25.6676 19.0003 25.6665Z" fill="black"/>
</svg>
