<svg width="48" height="48" viewBox="0 0 48 48" fill="none" xmlns="http://www.w3.org/2000/svg">
<rect width="48" height="48" rx="8" fill="black"/>
<path d="M12.6305 23.1231C12.6856 23.0955 12.7408 23.0693 12.7945 23.0445C13.7287 22.6119 14.6753 22.2068 15.6206 21.8017C15.6716 21.8017 15.757 21.7424 15.8052 21.7231C15.8782 21.6914 15.9513 21.6611 16.0243 21.6294C16.1648 21.5688 16.3054 21.5096 16.4446 21.4489C16.7256 21.3291 17.0053 21.2092 17.2864 21.0893C17.8472 20.8496 18.408 20.6098 18.9688 20.3687C20.0904 19.8892 21.2134 19.4083 22.335 18.9288C23.4566 18.4493 24.5796 17.9684 25.7012 17.4889C26.8228 17.0094 27.9458 16.5285 29.0674 16.049C30.189 15.5695 31.312 15.0886 32.4336 14.6091C32.683 14.5016 32.953 14.3418 33.2203 14.2949C33.4449 14.255 33.664 14.1778 33.89 14.1351C34.3185 14.0538 34.7911 14.0208 35.2017 14.1985C35.3437 14.2605 35.4746 14.3473 35.5834 14.4562C36.1043 14.9715 36.0312 15.8175 35.921 16.5423C35.1535 21.5936 34.386 26.6464 33.6172 31.6977C33.5124 32.3908 33.3691 33.1514 32.8221 33.5895C32.3591 33.9602 31.7005 34.0015 31.1287 33.8444C30.5569 33.686 30.0526 33.3539 29.5579 33.0273C27.5062 31.6687 25.4532 30.3101 23.4015 28.9515C22.9137 28.6291 22.3709 28.2075 22.3764 27.6219C22.3791 27.2691 22.5899 26.955 22.8049 26.6753C24.5879 24.3494 27.1604 22.7511 29.0743 20.5327C29.3443 20.2199 29.5565 19.6549 29.1859 19.4744C28.9654 19.367 28.7119 19.513 28.5107 19.6522C25.9809 21.409 23.4525 23.1672 20.9227 24.924C20.0973 25.4972 19.232 26.0869 18.2372 26.2274C17.3471 26.3542 16.4514 26.1062 15.5903 25.8527C14.8683 25.6405 14.1476 25.4228 13.4297 25.1982C13.048 25.0797 12.654 24.9515 12.3591 24.6828C12.0642 24.4141 11.8948 23.9622 12.0725 23.604C12.1841 23.3794 12.4005 23.2375 12.6278 23.1217L12.6305 23.1231Z" fill="white"/>
</svg>
